<svg width="18" height="20" viewBox="0 0 18 20" fill="none" xmlns="http://www.w3.org/2000/svg">
<path d="M3.93912 12.0322C3.7072 12.6557 3.51032 13.2325 3.33421 13.8149C4.29345 13.1183 5.43544 12.6761 6.75193 12.5115C9.2652 12.1974 11.4976 10.5379 12.6279 8.45301L11.1721 6.99829L12.5848 5.58358C12.9185 5.24944 13.2521 4.91554 13.5858 4.58188C14.0151 4.15252 14.5 3.35789 15.0129 2.2143C9.4197 3.08123 5.99484 6.50587 3.93912 12.0322ZM14 6.99679L15 7.99609C14 10.9961 11 13.9961 7 14.4961C4.33146 14.8296 2.66421 16.663 1.99824 19.9961H0C1 13.9961 3 -0.00390625 18 -0.00390625C17.0009 2.99343 16.0018 4.99254 15.0027 5.99342C14.6662 6.32989 14.3331 6.66323 14 6.99679Z" fill="#CDA000"/>
</svg>
